<svg width="66" height="15" viewBox="0 0 66 15" fill="none" xmlns="http://www.w3.org/2000/svg">
    <path fill-rule="evenodd" clip-rule="evenodd" d="M60.906 1.83556C62.4865 1.83556 63.9957 2.52673 65.0857 3.65553V1.76325C63.868 0.853795 62.523 0.417369 60.9969 0.417369C57.0696 0.417369 53.8537 3.63692 53.8537 7.56505C53.8537 11.4575 57.1255 14.6031 60.9969 14.6031C62.4507 14.6031 63.905 14.112 65.0857 13.2566V11.3659C63.9957 12.4566 62.4865 13.1843 60.9424 13.1843C57.8707 13.1843 55.3814 10.529 55.3814 7.51058C55.3814 4.49132 57.8528 1.83556 60.906 1.83556ZM40.4871 9.0569L42.8316 3.56401L45.1214 9.0569H40.4871ZM42.8676 0L36.5429 14.3668H38.2152L39.8692 10.4745H45.7212L47.3382 14.3668H49.0295L42.8676 0ZM1.52672 0.65351H0V14.3668H5.30748V12.948H1.52672V0.65351ZM14.142 14.3668H15.6689V0.65351H14.142V14.3668ZM26.7851 0.65351H25.2583V14.3668H30.5649V12.948H26.7851V0.65351Z" fill="#735AA9"/>
</svg>
