<svg width="25" height="24" viewBox="0 0 25 24" fill="none" xmlns="http://www.w3.org/2000/svg">
    <path fill-rule="evenodd" clip-rule="evenodd" d="M5.5 4C4.94772 4 4.5 4.44772 4.5 5V10C4.5 10.5523 4.94772 11 5.5 11H10.5C11.0523 11 11.5 10.5523 11.5 10V5C11.5 4.44772 11.0523 4 10.5 4H5.5ZM5.5 13C4.94772 13 4.5 13.4477 4.5 14V19C4.5 19.5523 4.94772 20 5.5 20H10.5C11.0523 20 11.5 19.5523 11.5 19V14C11.5 13.4477 11.0523 13 10.5 13H5.5ZM13.5 5C13.5 4.44772 13.9477 4 14.5 4H19.5C20.0523 4 20.5 4.44772 20.5 5V10C20.5 10.5523 20.0523 11 19.5 11H14.5C13.9477 11 13.5 10.5523 13.5 10V5ZM14.5 13C13.9477 13 13.5 13.4477 13.5 14V19C13.5 19.5523 13.9477 20 14.5 20H19.5C20.0523 20 20.5 19.5523 20.5 19V14C20.5 13.4477 20.0523 13 19.5 13H14.5Z" fill="#ABA8B0"/>
</svg>
