<svg width="24" height="24" viewBox="0 0 24 24" fill="none" xmlns="http://www.w3.org/2000/svg">
    <path fill-rule="evenodd" clip-rule="evenodd" d="M7.5 3.25C4.62893 3.25 2.25 5.49398 2.25 8.32432C2.25 9.9242 2.88701 11.4961 3.76919 12.9161C4.65533 14.3424 5.82461 15.6728 6.9737 16.8046C8.12544 17.939 9.27423 18.8909 10.1337 19.5585C10.564 19.8928 10.9233 20.157 11.1761 20.3383C11.3026 20.429 11.4025 20.4991 11.4715 20.5469C11.506 20.5709 11.5328 20.5892 11.5513 20.6019L11.5728 20.6165L11.5787 20.6205L11.581 20.6221L12.4385 20.6084L12 20C12.4385 20.6084 12.4394 20.6078 12.4394 20.6078L12.4469 20.6024L12.468 20.587C12.4863 20.5736 12.5129 20.5542 12.5472 20.5288C12.6158 20.478 12.7153 20.4037 12.8413 20.3077C13.0932 20.1158 13.4515 19.8369 13.8807 19.4863C14.738 18.786 15.884 17.7951 17.0327 16.6361C18.1786 15.4798 19.3444 14.1391 20.2281 12.7379C21.1047 11.348 21.75 9.82623 21.75 8.32432L21.7492 8.32352C21.7497 8.29417 21.75 8.26476 21.75 8.23529C21.75 5.43981 19.356 3.25 16.5 3.25C14.9705 3.25 13.6601 4.11499 12.7664 5.08531C12.468 5.40924 12.2054 5.75571 11.9864 6.10557C11.7742 5.76601 11.5225 5.4307 11.2382 5.11636C10.3454 4.12945 9.03392 3.25 7.5 3.25ZM12 20L11.581 20.6221C11.581 20.6221 11.5814 20.6223 12 20Z" fill="#ABA8B0"/>
</svg>
