<svg width="24" height="24" viewBox="0 0 24 24" fill="none" xmlns="http://www.w3.org/2000/svg">
    <g clip-path="url(#clip0_1495_17741)">
        <g filter="url(#filter0_d_1495_17741)">
            <path d="M4.22222 20V12.0589H3C2.44772 12.0589 2 11.6112 2 11.0589V10.849C2 10.5533 2.13093 10.2727 2.3576 10.0827L11.3576 2.53849C11.7292 2.22698 12.2708 2.22698 12.6424 2.53849L21.6424 10.0827C21.8691 10.2727 22 10.5533 22 10.849V11.0589C22 11.6112 21.5523 12.0589 21 12.0589H19.7778V20C19.7778 20.5523 19.3301 21 18.7778 21H14.2222V14.853H9.77778V21H5.22222C4.66994 21 4.22222 20.5523 4.22222 20Z" fill="#735AA9"/>
            <path d="M4.22222 12.0589H4.97222V11.3089H4.22222V12.0589ZM9.77778 21V21.75H10.5278V21H9.77778ZM9.77778 14.853V14.103H9.02778V14.853H9.77778ZM14.2222 14.853H14.9722V14.103H14.2222V14.853ZM14.2222 21H13.4722V21.75H14.2222V21ZM19.7778 12.0589V11.3089H19.0278V12.0589H19.7778ZM21.6424 10.0827L22.1242 9.50788V9.50788L21.6424 10.0827ZM12.6424 2.53849L12.1606 3.11326V3.11326L12.6424 2.53849ZM11.3576 2.53849L11.8394 3.11326V3.11326L11.3576 2.53849ZM2.3576 10.0827L2.8394 10.6574H2.8394L2.3576 10.0827ZM3.47222 12.0589V20H4.97222V12.0589H3.47222ZM5.22222 21.75H9.77778V20.25H5.22222V21.75ZM10.5278 21V14.853H9.02778V21H10.5278ZM9.77778 15.603H14.2222V14.103H9.77778V15.603ZM13.4722 14.853V21H14.9722V14.853H13.4722ZM14.2222 21.75H18.7778V20.25H14.2222V21.75ZM20.5278 20V12.0589H19.0278V20H20.5278ZM22.1242 9.50788L13.1242 1.96371L12.1606 3.11326L21.1606 10.6574L22.1242 9.50788ZM10.8758 1.96371L1.8758 9.50788L2.8394 10.6574L11.8394 3.11326L10.8758 1.96371ZM19.7778 12.8089H21V11.3089H19.7778V12.8089ZM22.75 11.0589V10.849H21.25V11.0589H22.75ZM1.25 10.849V11.0589H2.75V10.849H1.25ZM3 12.8089H4.22222V11.3089H3V12.8089ZM21 12.8089C21.9665 12.8089 22.75 12.0254 22.75 11.0589H21.25C21.25 11.1969 21.1381 11.3089 21 11.3089V12.8089ZM1.8758 9.50788C1.47913 9.84039 1.25 10.3314 1.25 10.849H2.75C2.75 10.7751 2.78273 10.7049 2.8394 10.6574L1.8758 9.50788ZM13.1242 1.96371C12.4739 1.41857 11.5261 1.41857 10.8758 1.96371L11.8394 3.11326C11.9323 3.03539 12.0677 3.03539 12.1606 3.11326L13.1242 1.96371ZM21.1606 10.6574C21.2173 10.7049 21.25 10.7751 21.25 10.849H22.75C22.75 10.3314 22.5209 9.84039 22.1242 9.50788L21.1606 10.6574ZM18.7778 21.75C19.7443 21.75 20.5278 20.9665 20.5278 20H19.0278C19.0278 20.1381 18.9158 20.25 18.7778 20.25V21.75ZM1.25 11.0589C1.25 12.0254 2.0335 12.8089 3 12.8089V11.3089C2.86193 11.3089 2.75 11.1969 2.75 11.0589H1.25ZM3.47222 20C3.47222 20.9665 4.25572 21.75 5.22222 21.75V20.25C5.08415 20.25 4.97222 20.1381 4.97222 20H3.47222Z" fill="#735AA9"/>
        </g>
    </g>
    <defs>
        <filter id="filter0_d_1495_17741" x="-2.75" y="1.55481" width="29.5" height="28.1952" filterUnits="userSpaceOnUse" color-interpolation-filters="sRGB">
            <feFlood flood-opacity="0" result="BackgroundImageFix"/>
            <feColorMatrix in="SourceAlpha" type="matrix" values="0 0 0 0 0 0 0 0 0 0 0 0 0 0 0 0 0 0 127 0" result="hardAlpha"/>
            <feOffset dy="4"/>
            <feGaussianBlur stdDeviation="2"/>
            <feComposite in2="hardAlpha" operator="out"/>
            <feColorMatrix type="matrix" values="0 0 0 0 0 0 0 0 0 0 0 0 0 0 0 0 0 0 0.25 0"/>
            <feBlend mode="normal" in2="BackgroundImageFix" result="effect1_dropShadow_1495_17741"/>
            <feBlend mode="normal" in="SourceGraphic" in2="effect1_dropShadow_1495_17741" result="shape"/>
        </filter>
        <clipPath id="clip0_1495_17741">
            <rect width="24" height="24" fill="white"/>
        </clipPath>
    </defs>
</svg>
