<svg width="32" height="32" viewBox="0 0 20 18" fill="none" xmlns="http://www.w3.org/2000/svg">
    <path opacity="0.7" d="M10.5842 17.1908L10.5089 17.1925L10.6106 17.1716C10.6274 17.1593 10.6519 17.1413 10.6835 17.118C10.7466 17.0712 10.8383 17.0028 10.9543 16.9144C11.1864 16.7376 11.5164 16.4807 11.9117 16.1578C12.7013 15.5128 13.7567 14.6002 14.8147 13.5327C15.8701 12.4678 16.9439 11.233 17.7578 9.94245C18.5651 8.6623 19.1595 7.26072 19.1595 5.87744L19.1587 5.87669C19.1592 5.84966 19.1595 5.82257 19.1595 5.79544C19.1595 3.22074 16.9545 1.20389 14.3241 1.20389C12.9154 1.20389 11.7085 2.00056 10.8854 2.89424C10.6106 3.19259 10.3687 3.51169 10.167 3.83392C9.97154 3.52119 9.73975 3.21235 9.47786 2.92284C8.65558 2.01387 7.44771 1.20389 6.03493 1.20389C3.39063 1.20389 1.19958 3.27064 1.19958 5.87744C1.19958 7.35095 1.78629 8.79871 2.59878 10.1065C3.41494 11.4202 4.49187 12.6455 5.5502 13.6879C6.61097 14.7328 7.66903 15.6095 8.46059 16.2243C8.85693 16.5322 9.18785 16.7755 9.42073 16.9426C9.5372 17.0261 9.62924 17.0906 9.69278 17.1347C9.72456 17.1567 9.74921 17.1737 9.76625 17.1853L9.78602 17.1987L9.99958 17.2039H9.79364L10.5834 17.1913" stroke="white" stroke-width="1.5" stroke-linecap="round" stroke-linejoin="bevel"/>
</svg>
