<svg width="32" height="32" viewBox="0 0 20 18" fill="none" xmlns="http://www.w3.org/2000/svg">
    <path d="M1.19959 5.87744C1.19959 3.27064 3.39064 1.20389 6.03494 1.20389C7.44771 1.20389 8.65559 2.01387 9.47787 2.92284C9.73976 3.21235 9.97155 3.52119 10.167 3.83392C10.3687 3.51169 10.6106 3.19259 10.8854 2.89424C11.7086 2.00056 12.9154 1.20389 14.3241 1.20389C16.9546 1.20389 19.1595 3.22074 19.1595 5.79544C19.1595 5.82257 19.1592 5.84966 19.1587 5.87669L19.1595 5.87744C19.1595 7.26072 18.5652 8.6623 17.7578 9.94245C16.9439 11.233 15.8702 12.4678 14.8147 13.5327C13.7567 14.6002 12.7013 15.5128 11.9117 16.1578C11.5164 16.4807 11.1864 16.7376 10.9543 16.9144C10.8383 17.0028 10.7467 17.0712 10.6835 17.118C10.6519 17.1413 10.6274 17.1593 10.6106 17.1716L10.5089 17.1925L9.91783 17.2019L9.99959 17.2039H9.79364L9.91783 17.2019L9.78602 17.1987L9.76625 17.1853C9.74922 17.1737 9.72456 17.1567 9.69279 17.1347C9.62925 17.0906 9.53721 17.0261 9.42074 16.9426C9.18786 16.7755 8.85694 16.5322 8.4606 16.2243C7.66904 15.6095 6.61098 14.7328 5.55021 13.6879C4.49187 12.6455 3.41495 11.4202 2.59879 10.1065C1.7863 8.79871 1.19959 7.35095 1.19959 5.87744Z" fill="#735AA9"/>
    <path d="M10.5842 17.1908L10.5089 17.1925L10.6106 17.1716C10.6274 17.1593 10.6519 17.1413 10.6835 17.118C10.7467 17.0712 10.8383 17.0028 10.9543 16.9144C11.1864 16.7376 11.5164 16.4807 11.9117 16.1578C12.7013 15.5128 13.7567 14.6002 14.8147 13.5327C15.8702 12.4678 16.9439 11.233 17.7578 9.94245C18.5652 8.6623 19.1595 7.26072 19.1595 5.87744L19.1587 5.87669C19.1592 5.84966 19.1595 5.82257 19.1595 5.79544C19.1595 3.22074 16.9546 1.20389 14.3241 1.20389C12.9154 1.20389 11.7086 2.00056 10.8854 2.89424C10.6106 3.19259 10.3687 3.51169 10.167 3.83392C9.97154 3.52119 9.73976 3.21235 9.47787 2.92284C8.65559 2.01387 7.44771 1.20389 6.03494 1.20389C3.39064 1.20389 1.19959 3.27064 1.19959 5.87744C1.19959 7.35095 1.7863 8.79871 2.59879 10.1065C3.41495 11.4202 4.49187 12.6455 5.55021 13.6879C6.61098 14.7328 7.66904 15.6095 8.4606 16.2243C8.85694 16.5322 9.18786 16.7755 9.42074 16.9426C9.53721 17.0261 9.62925 17.0906 9.69279 17.1347C9.72456 17.1567 9.74922 17.1737 9.76625 17.1853L9.78602 17.1987L9.99959 17.2039H9.79364L10.5834 17.1913" stroke="white" stroke-width="1.5" stroke-linecap="round" stroke-linejoin="bevel"/>
</svg>
